<?xml version="1.0" encoding="UTF-8" standalone="no"?>
<!DOCTYPE svg PUBLIC "-//W3C//DTD SVG 1.1//EN" "http://www.w3.org/Graphics/SVG/1.1/DTD/svg11.dtd">
<svg width="100%" height="100%" viewBox="0 0 1000 1000" version="1.1" xmlns="http://www.w3.org/2000/svg" xmlns:xlink="http://www.w3.org/1999/xlink" xml:space="preserve" xmlns:serif="http://www.serif.com/" style="fill-rule:evenodd;clip-rule:evenodd;stroke-linecap:round;stroke-linejoin:round;stroke-miterlimit:1.5;">
    <g id="Layer2">
        <g transform="matrix(1.28198,0.146661,-0.140382,1.227087,-129.882898,-129.703918)">
            <path d="M685.068,670.527L684,746C684,783.53 593.263,814 481.5,814C369.737,814 279,783.53 279,746L279.766,671.882" style="fill:rgb(255,56,22);stroke:black;stroke-width:21.44px;"/>
        </g>
        <g transform="matrix(1.28198,0.146661,-0.140382,1.227087,-118.110899,-221.216757)">
            <ellipse cx="481.5" cy="746" rx="202.5" ry="68" style="fill:rgb(255,56,22);stroke:black;stroke-width:21.44px;"/>
        </g>
    </g>
    <g id="Layer1">
        <g transform="matrix(1.135809,0,0,1.135809,-124.670888,-27.140602)">
            <path d="M510,171C468.31,88.162 429.768,53.275 385,81C362.427,94.979 367,152 367,152C367,152 306.912,128.251 279,160C251.088,191.749 285,242 285,242C285,242 251.14,220.899 220,261C188.86,301.101 236.456,432.051 412,451" style="fill:rgb(255,56,22);stroke:black;stroke-width:23.84px;"/>
        </g>
        <g transform="matrix(1.135809,0,0,1.135809,-124.670888,-27.140602)">
            <path d="M862.947,203.977C862.947,203.977 663.811,51.103 517.412,119.619C371.253,188.024 380.551,432.329 439,500C497.449,567.671 605.102,546.994 703,525C800.898,503.006 814.648,445.471 884.464,473.33C921.308,367.671 880.101,320.502 862.947,203.977Z" style="fill:white;stroke:black;stroke-width:23.84px;"/>
        </g>
        <g transform="matrix(1.135809,0,0,1.135809,-124.670888,-27.140602)">
            <path d="M597.577,524.485C597.577,524.485 754.248,466.635 807,504C859.752,541.365 783,589 783,589C783,589 836.202,658.345 743,660C637.822,661.868 597.577,524.485 597.577,524.485Z" style="fill:rgb(255,56,22);stroke:black;stroke-width:23.84px;"/>
        </g>
        <g transform="matrix(0.945421,0.629476,-0.629476,0.945421,199.758499,-305.867807)">
            <ellipse cx="548.5" cy="349.5" rx="45.5" ry="28.5" style="stroke:black;stroke-width:23.84px;"/>
        </g>
        <g transform="matrix(1.135809,0,0,1.135809,-124.670888,-27.140602)">
            <path d="M459,688C459,688 391.654,590.197 456,499L570,456L611,567C611,567 573.313,633.5 459,688Z" style="fill:rgb(255,199,22);stroke:black;stroke-width:23.84px;"/>
        </g>
        <g transform="matrix(1.135809,0,0,1.135809,-124.670888,-27.140602)">
            <path d="M568,460C568,460 473.129,589.426 464,674" style="fill:none;stroke:black;stroke-width:23.84px;"/>
        </g>
    </g>
</svg>
