<?xml version="1.0" encoding="UTF-8" standalone="no"?>
<!DOCTYPE svg PUBLIC "-//W3C//DTD SVG 1.1//EN" "http://www.w3.org/Graphics/SVG/1.1/DTD/svg11.dtd">
<svg width="100%" height="100%" viewBox="0 0 1000 1000" version="1.1" xmlns="http://www.w3.org/2000/svg" xmlns:xlink="http://www.w3.org/1999/xlink" xml:space="preserve" xmlns:serif="http://www.serif.com/" style="fill-rule:evenodd;clip-rule:evenodd;stroke-linecap:round;stroke-miterlimit:1.5;">
    <g id="Layer2">
    </g>
    <g id="Layer1" transform="translate(1000,0) scale(-1,1)">
        <g transform="matrix(1.182994,0.127629,-0.127629,1.182994,-117.161576,-7.859575)">
            <path d="M510,171C468.31,88.162 429.768,53.275 385,81C362.427,94.979 367,152 367,152C367,152 306.912,128.251 279,160C251.088,191.749 285,242 285,242C285,242 251.14,220.899 220,261C188.86,301.101 236.456,432.051 412,451" style="fill:rgb(236,32,0);"/>
        </g>
        <g transform="matrix(1.182994,0.127629,-0.127629,1.182994,-117.161576,-7.859575)">
            <path d="M862.947,203.977C862.947,203.977 663.811,51.103 517.412,119.619C371.253,188.024 380.551,432.329 439,500C497.449,567.671 605.102,546.994 703,525C800.898,503.006 814.648,445.471 884.464,473.33C921.308,367.671 880.101,320.502 862.947,203.977Z" style="fill:white;stroke:black;stroke-width:31.52px;"/>
        </g>
        <g transform="matrix(1.378468,0.148717,-0.148717,1.378468,-229.52144,-117.161668)">
            <path d="M598.238,517.159C598.238,517.159 754.248,466.635 807,504C859.752,541.365 783,589 783,589C783,589 836.202,658.345 743,660C637.822,661.868 598.238,517.159 598.238,517.159Z" style="fill:rgb(236,32,0);"/>
        </g>
        <g transform="matrix(1.356264,1.130553,-1.215887,1.458635,175.934673,-652.926761)">
            <ellipse cx="548.5" cy="349.5" rx="45.5" ry="28.5"/>
        </g>
        <g transform="matrix(1.182994,0.127629,-0.127629,1.182994,-117.161576,-7.859575)">
            <path d="M459,688C459,688 391.654,590.197 456,499L570,456L611,567C611,567 573.313,633.5 459,688Z" style="fill:rgb(255,187,16);"/>
        </g>
    </g>
</svg>
