<?xml version="1.0" encoding="UTF-8" standalone="no"?>
<!DOCTYPE svg PUBLIC "-//W3C//DTD SVG 1.1//EN" "http://www.w3.org/Graphics/SVG/1.1/DTD/svg11.dtd">
<svg width="100%" height="100%" viewBox="0 0 1000 1000" version="1.1" xmlns="http://www.w3.org/2000/svg" xmlns:xlink="http://www.w3.org/1999/xlink" xml:space="preserve" xmlns:serif="http://www.serif.com/" style="fill-rule:evenodd;clip-rule:evenodd;stroke-linecap:round;stroke-miterlimit:1.5;">
    <g transform="matrix(1.002004,0,0,1.001002,2.004008,1)">
        <path d="M996,148.612L996,849.388C996,931.409 929.476,998 847.537,998L146.463,998C64.524,998 -2,931.409 -2,849.388L-2,148.612C-2,66.591 64.524,0 146.463,0L847.537,0C929.476,0 996,66.591 996,148.612Z" style="fill:white;"/>
    </g>
    <g transform="matrix(1.003331,0.108245,-0.108245,1.003331,-21.990916,55.057645)">
        <path d="M510,171C468.31,88.162 429.768,53.275 385,81C362.427,94.979 367,152 367,152C367,152 306.912,128.251 279,160C251.088,191.749 285,242 285,242C285,242 251.14,220.899 220,261C188.86,301.101 236.456,432.051 412,451" style="fill:rgb(236,32,0);"/>
    </g>
    <g transform="matrix(1.003331,0.108245,-0.108245,1.003331,-21.990916,55.057645)">
        <path d="M862.947,203.977C862.947,203.977 663.811,51.103 517.412,119.619C371.253,188.024 380.551,432.329 439,500C497.449,567.671 605.102,546.994 703,525C800.898,503.006 814.648,445.471 884.464,473.33C921.308,367.671 880.101,320.502 862.947,203.977Z" style="fill:white;stroke:black;stroke-width:37.16px;"/>
    </g>
    <g transform="matrix(1.169118,0.126132,-0.126132,1.169118,-117.286526,-37.644582)">
        <path d="M598.238,517.159C598.238,517.159 754.248,466.635 807,504C859.752,541.365 783,589 783,589C783,589 836.202,658.345 743,660C637.822,661.868 598.238,517.159 598.238,517.159Z" style="fill:rgb(236,32,0);"/>
    </g>
    <g transform="matrix(1.150286,0.958855,-1.031229,1.23711,226.592383,-492.042258)">
        <ellipse cx="548.5" cy="349.5" rx="45.5" ry="28.5"/>
    </g>
    <g transform="matrix(1.003331,0.108245,-0.108245,1.003331,-21.990916,55.057645)">
        <path d="M459,688C459,688 391.654,590.197 456,499L570,456L611,567C611,567 573.313,633.5 459,688Z" style="fill:rgb(255,187,16);"/>
    </g>
</svg>
